<svg width="18" height="18" viewBox="0 0 18 18" fill="none" xmlns="http://www.w3.org/2000/svg">
<path fill-rule="evenodd" clip-rule="evenodd" d="M3.18127 5.808C3.42241 5.56456 3.81334 5.56289 4.05448 5.80967L9.43693 11.3042C9.67807 11.5502 9.67725 11.9475 9.43529 12.1918C9.31513 12.3131 9.15711 12.375 8.99992 12.375C8.84108 12.375 8.68306 12.3131 8.5629 12.1901L3.18044 6.69559C2.9393 6.44964 2.94013 6.05227 3.18127 5.808ZM13.9447 5.80975C14.1858 5.56297 14.5768 5.56464 14.8179 5.80808C15.0599 6.05236 15.0607 6.44972 14.8204 6.69567L11.2461 10.3448C11.1259 10.4677 10.9671 10.5296 10.809 10.5296C10.6519 10.5296 10.4938 10.4677 10.3737 10.3464C10.1317 10.1021 10.1309 9.70478 10.3712 9.45883L13.9447 5.80975Z" fill="white"/>
</svg>
