<svg width="24" height="24" viewBox="0 0 24 24" fill="none" xmlns="http://www.w3.org/2000/svg">
<mask id="mask0" mask-type="alpha" maskUnits="userSpaceOnUse" x="0" y="0" width="24" height="24">
<rect width="24" height="24" fill="#C4C4C4"/>
</mask>
<g mask="url(#mask0)">
<path d="M15.9515 6.35154C16.4201 5.88282 17.1799 5.88282 17.6485 6.35154C18.0746 6.77764 18.1133 7.44442 17.7647 7.91428L17.6485 8.0489L8.04853 17.6506C7.5799 18.1193 6.8201 18.1193 6.35147 17.6506C5.92545 17.2245 5.88672 16.5577 6.23528 16.0879L6.35147 15.9533L15.9515 6.35154Z" fill="white"/>
<path d="M6.35147 6.35154C6.7775 5.92543 7.44416 5.8867 7.91394 6.23533L8.04853 6.35154L17.6485 15.9533C18.1172 16.422 18.1172 17.1819 17.6485 17.6506C17.2225 18.0767 16.5558 18.1155 16.0861 17.7668L15.9515 17.6506L6.35147 8.0489C5.88284 7.58018 5.88284 6.82025 6.35147 6.35154Z" fill="white"/>
</g>
</svg>
