<svg width="219" height="191" viewBox="0 0 219 191" fill="none" xmlns="http://www.w3.org/2000/svg">
<g filter="url(#filter0_d)">
<path d="M25.5 47.5L49.5 67.5L51 84L52 104.5L55 107L57.5 106.5L67 89.5L68.5 88.5L71.5 88L110.5 129L113 131H116L118.5 128.5L174 16L173.5 13L171 11L29 41L25.5 43.5V47.5Z" fill="url(#paint0_linear)"/>
<path d="M27.9422 40.4944L166.975 10.5028L168.782 10.114C169.702 9.91412 170.66 9.97803 171.545 10.2984C172.431 10.6187 173.208 11.1824 173.787 11.9247C174.366 12.667 174.724 13.5577 174.82 14.4944C174.915 15.4311 174.745 16.3758 174.327 17.2198L119.126 129.321C118.768 130.042 118.243 130.665 117.595 131.14C116.946 131.615 116.193 131.927 115.398 132.051C114.601 132.175 113.786 132.103 113.023 131.841C112.26 131.579 111.572 131.136 111.019 130.549L72.6772 90.1209C72.4045 89.826 72.0737 89.5908 71.7056 89.4301C71.3375 89.2693 70.9401 89.1865 70.5385 89.1868C69.9925 89.1791 69.4548 89.32 68.9828 89.5944C68.5107 89.8689 68.1222 90.2665 67.8588 90.7448L60.0053 105.271C59.504 106.24 58.693 107.013 57.7016 107.467C56.7101 107.921 55.5951 108.031 54.5342 107.778L54.4951 107.77C53.4212 107.542 52.455 106.96 51.7518 106.117C51.0486 105.274 50.6493 104.22 50.618 103.122L49.0448 69.5906C49.026 69.1722 48.9215 68.7621 48.7378 68.3858C48.5405 68.0134 48.2728 67.6828 47.9494 67.4125L25.8298 49.255C25.1027 48.6582 24.5585 47.8686 24.2596 46.9767C23.9606 46.0849 23.919 45.1268 24.1395 44.2124C24.36 43.298 24.8336 42.4642 25.5062 41.8066C26.1788 41.149 27.023 40.6943 27.9422 40.4944H27.9422ZM27.093 47.7114L49.2126 65.869C49.5008 66.1012 49.762 66.365 49.9912 66.6556L167.226 13.4874C167.33 13.4393 167.437 13.4015 167.548 13.3745C168 13.2579 168.479 13.3031 168.902 13.5021C169.324 13.7011 169.664 14.0415 169.862 14.4644C170.06 14.8873 170.104 15.3661 169.986 15.818C169.868 16.2699 169.597 16.6666 169.217 16.9393L72.824 87.7467C73.3132 88.001 73.7548 88.3377 74.1295 88.7421L112.471 129.17C112.804 129.52 113.216 129.785 113.673 129.941C114.13 130.098 114.617 130.142 115.095 130.07C115.573 129.997 116.026 129.811 116.416 129.526C116.806 129.241 117.121 128.866 117.335 128.434L172.537 16.3321C172.784 15.8256 172.883 15.2599 172.824 14.6996C172.765 14.1393 172.55 13.6068 172.203 13.1628C171.856 12.7188 171.392 12.3812 170.862 12.1884C170.333 11.9956 169.76 11.9554 169.209 12.0724L167.359 12.4721L28.3695 42.453C27.8176 42.5724 27.3106 42.8449 26.9063 43.2392C26.5021 43.6334 26.2171 44.1335 26.0839 44.6823C25.9507 45.231 25.9747 45.8061 26.1531 46.3418C26.3316 46.8775 26.6573 47.3522 27.093 47.7114Z" fill="white"/>
<path d="M27.9422 40.4944L166.975 10.5028L168.782 10.114C169.702 9.91412 170.66 9.97803 171.545 10.2984C172.431 10.6187 173.208 11.1824 173.787 11.9247C174.366 12.667 174.724 13.5577 174.82 14.4944C174.915 15.4311 174.745 16.3758 174.327 17.2198L119.126 129.321C118.768 130.042 118.243 130.665 117.595 131.14C116.946 131.615 116.193 131.927 115.398 132.051C114.601 132.175 113.786 132.103 113.023 131.841C112.26 131.579 111.572 131.136 111.019 130.549L72.6772 90.1209C72.4045 89.826 72.0737 89.5908 71.7056 89.4301C71.3375 89.2693 70.9401 89.1865 70.5385 89.1868C69.9925 89.1791 69.4548 89.32 68.9828 89.5944C68.5107 89.8689 68.1222 90.2665 67.8588 90.7448L60.0053 105.271C59.504 106.24 58.693 107.013 57.7016 107.467C56.7101 107.921 55.5951 108.031 54.5342 107.778L54.4951 107.77C53.4212 107.542 52.455 106.96 51.7518 106.117C51.0486 105.274 50.6493 104.22 50.618 103.122L49.0448 69.5906C49.026 69.1722 48.9215 68.7621 48.7378 68.3858C48.5405 68.0134 48.2728 67.6828 47.9494 67.4125L25.8298 49.255C25.1027 48.6582 24.5585 47.8686 24.2596 46.9767C23.9606 46.0849 23.919 45.1268 24.1395 44.2124C24.36 43.298 24.8336 42.4642 25.5062 41.8066C26.1788 41.149 27.023 40.6943 27.9422 40.4944H27.9422ZM27.093 47.7114L49.2126 65.869C49.5008 66.1012 49.762 66.365 49.9912 66.6556C50.1979 66.9141 50.3764 67.194 50.5236 67.4904C50.6779 67.7936 50.7995 68.1123 50.8864 68.4412L50.8842 68.451C50.9758 68.7936 51.0287 69.1454 51.0417 69.4998L52.6144 103.031C52.6276 103.691 52.8648 104.326 53.287 104.833C53.7091 105.339 54.2911 105.687 54.9372 105.819L54.9567 105.823C55.5934 105.982 56.2648 105.92 56.8621 105.649C57.4594 105.377 57.9476 104.912 58.2474 104.329L66.1031 89.793C66.5078 89.0453 67.0969 88.4135 67.8144 87.9574C68.5319 87.5013 69.354 87.2361 70.2028 87.1871L70.2124 87.1892C70.3266 87.1838 70.4404 87.1782 70.5519 87.1824C71.3439 87.1828 72.1238 87.3765 72.824 87.7467C73.3132 88.001 73.7548 88.3377 74.1295 88.7421L112.471 129.17C112.804 129.52 113.216 129.785 113.673 129.941C114.13 130.098 114.617 130.142 115.095 130.07C115.573 129.997 116.026 129.811 116.416 129.526C116.806 129.241 117.121 128.866 117.335 128.434L172.537 16.3321C172.784 15.8256 172.883 15.2599 172.824 14.6996C172.765 14.1393 172.55 13.6068 172.203 13.1628C171.856 12.7188 171.392 12.3812 170.862 12.1884C170.333 11.9956 169.76 11.9554 169.209 12.0724L167.359 12.4721L28.3695 42.453C27.8176 42.5724 27.3106 42.8449 26.9063 43.2392C26.5021 43.6334 26.2171 44.1335 26.0839 44.6823C25.9507 45.231 25.9747 45.8061 26.1531 46.3418C26.3316 46.8775 26.6573 47.3522 27.093 47.7114Z" fill="url(#paint1_linear)"/>
<path d="M49.5478 66.8545L50.374 68.6761L50.8844 68.451L50.8865 68.4412L168.029 15.3243L70.2126 87.1892L70.203 87.1871L69.944 87.3858L71.1234 88.9986L72.8242 87.7466L169.218 16.9392C169.597 16.6665 169.869 16.2699 169.986 15.818C170.104 15.3661 170.06 14.8873 169.862 14.4644C169.664 14.0415 169.324 13.7011 168.902 13.502C168.479 13.303 168.001 13.2579 167.548 13.3744C167.438 13.4015 167.33 13.4393 167.226 13.4874L49.9914 66.6556L49.5478 66.8545Z" fill="#FA6511"/>
</g>
<defs>
<filter id="filter0_d" x="0" y="0" width="218.846" height="190.11" filterUnits="userSpaceOnUse" color-interpolation-filters="sRGB">
<feFlood flood-opacity="0" result="BackgroundImageFix"/>
<feColorMatrix in="SourceAlpha" type="matrix" values="0 0 0 0 0 0 0 0 0 0 0 0 0 0 0 0 0 0 127 0" result="hardAlpha"/>
<feOffset dx="10" dy="24"/>
<feGaussianBlur stdDeviation="17"/>
<feColorMatrix type="matrix" values="0 0 0 0 0 0 0 0 0 0 0 0 0 0 0 0 0 0 0.21 0"/>
<feBlend mode="normal" in2="BackgroundImageFix" result="effect1_dropShadow"/>
<feBlend mode="normal" in="SourceGraphic" in2="effect1_dropShadow" result="shape"/>
</filter>
<linearGradient id="paint0_linear" x1="99.75" y1="11" x2="99.75" y2="131" gradientUnits="userSpaceOnUse">
<stop stop-color="#FF6711"/>
<stop offset="1" stop-color="#FFA011"/>
</linearGradient>
<linearGradient id="paint1_linear" x1="99.4229" y1="10" x2="99.4229" y2="132.11" gradientUnits="userSpaceOnUse">
<stop stop-color="#FF6711"/>
<stop offset="1" stop-color="#FFA011"/>
</linearGradient>
</defs>
</svg>
