<svg width="46" height="46" viewBox="0 0 46 46" fill="none" xmlns="http://www.w3.org/2000/svg">
<path fill-rule="evenodd" clip-rule="evenodd" d="M23.0075 3.83325C17.3839 3.83325 12.8251 8.41148 12.8251 14.059C12.8251 19.7065 17.3839 24.2848 23.0075 24.2848C28.631 24.2848 33.1898 19.7065 33.1898 14.059C33.1898 8.41148 28.631 3.83325 23.0075 3.83325ZM23.0074 6.60797C27.105 6.60797 30.4268 9.94392 30.4268 14.059C30.4268 18.1741 27.105 21.5101 23.0074 21.5101C18.9097 21.5101 15.5879 18.1741 15.5879 14.059C15.5879 9.94392 18.9097 6.60797 23.0074 6.60797ZM18.8403 28.4066C17.3496 28.5101 15.8429 28.7229 14.3567 29.0414C11.4882 29.6322 9.19332 30.8128 8.21656 32.7747C7.84815 33.5419 7.66293 34.3634 7.66605 35.1951C7.66495 36.0208 7.84867 36.8434 8.20387 37.5958C9.14174 39.5351 11.1693 40.6326 13.9071 41.2409L14.3976 41.3433C15.8434 41.6695 17.3506 41.8891 18.8679 41.9922C18.9971 42.0301 19.3051 42.0653 19.6413 42.0825L19.9178 42.0929C20.0599 42.0962 20.2213 42.097 20.4617 42.097C22.6426 42.2169 24.9034 42.182 27.1538 41.9904C28.353 41.9084 29.5603 41.7516 30.7575 41.5218L31.6532 41.3358C34.6097 40.7526 36.8234 39.6434 37.7933 37.598C38.5124 36.0794 38.5124 34.3172 37.7936 32.7993C36.8262 30.7591 34.6406 29.6591 31.6308 29.0391C30.4499 28.787 29.25 28.6005 28.0415 28.4813L27.1579 28.4066C24.3907 28.1625 21.6075 28.1625 18.8403 28.4066ZM26.9163 31.1707L26.9406 31.1726C28.3276 31.2702 29.7061 31.4649 31.0661 31.7552C33.3017 32.2158 34.8189 32.9793 35.2989 33.9916C35.6603 34.7549 35.6603 35.6418 35.2986 36.4058C34.8501 37.3516 33.4875 38.0824 31.518 38.529L31.0868 38.6203C29.7001 38.9297 28.3262 39.1291 26.9431 39.2239C24.7972 39.4064 22.664 39.4394 20.5361 39.3243L19.7817 39.3114C19.5723 39.3007 19.3958 39.2805 19.2322 39.2477C17.937 39.1499 16.7716 38.9952 15.64 38.7709L14.9643 38.6279C12.7217 38.1883 11.1912 37.4215 10.6949 36.3954C10.5213 36.0274 10.4285 35.6122 10.4291 35.1917C10.4275 34.7736 10.5191 34.3677 10.6967 33.9975C11.1792 33.0287 12.8013 32.1943 14.9227 31.7572C16.2925 31.4637 17.6704 31.2691 19.0568 31.1727C21.6885 30.9407 24.3099 30.9407 26.9163 31.1707Z" fill="white"/>
</svg>
