<svg width="24" height="24" viewBox="0 0 24 24" fill="none" xmlns="http://www.w3.org/2000/svg">
<path fill-rule="evenodd" clip-rule="evenodd" d="M16.334 2.00024H7.665C4.26743 2.00024 2 4.43284 2 7.91624V16.0842C2 19.5713 4.2607 22.0002 7.665 22.0002H16.333C19.7376 22.0002 22 19.5709 22 16.0842V7.91624C22 4.42975 19.7378 2.00024 16.334 2.00024ZM7.665 3.50024H16.334C18.8845 3.50024 20.5 5.23521 20.5 7.91624V16.0842C20.5 18.7654 18.8844 20.5002 16.333 20.5002H7.665C5.11414 20.5002 3.5 18.766 3.5 16.0842V7.91624C3.5 5.23862 5.12034 3.50024 7.665 3.50024ZM12.7428 7.53197C12.6931 7.1659 12.3793 6.88374 11.9996 6.88374C11.5854 6.88374 11.2496 7.21953 11.2496 7.63374V11.9947L11.258 12.1065C11.2911 12.3265 11.4209 12.5228 11.6153 12.6388L15.0063 14.6618L15.0973 14.7081C15.4371 14.853 15.8402 14.7281 16.0347 14.402L16.081 14.3111C16.2259 13.9713 16.1009 13.5682 15.7749 13.3737L12.7493 11.568L12.7496 7.63374L12.7428 7.53197Z" fill="#200E32"/>
</svg>
